<svg width="32" height="28" viewBox="0 0 32 28" fill="none" xmlns="http://www.w3.org/2000/svg">
<path d="M15.9999 3.00196L2.7349 26.002H29.2649L26.0619 20.447C26.9489 20.9084 27.9073 21.217 28.8969 21.36L31.8629 26.502C31.9507 26.654 31.9969 26.8266 31.9969 27.0022C31.9968 27.1778 31.9505 27.3503 31.8627 27.5024C31.7748 27.6544 31.6484 27.7807 31.4962 27.8683C31.3441 27.956 31.1715 28.0021 30.9959 28.002H1.0029C0.827369 28.002 0.654929 27.9557 0.502913 27.868C0.350897 27.7802 0.224663 27.654 0.136898 27.5019C0.0491327 27.3499 0.00292857 27.1775 0.00292969 27.002C0.0029308 26.8264 0.049137 26.654 0.136904 26.502L15.1339 0.499956C15.2217 0.347949 15.3479 0.221722 15.4999 0.133962C15.6519 0.0462015 15.8244 0 15.9999 0C16.1754 0 16.3479 0.0462015 16.4999 0.133962C16.6519 0.221722 16.7781 0.347949 16.8659 0.499956L21.8859 9.20296C21.5144 10.1328 21.3024 11.1186 21.2589 12.119L15.9999 3.00196Z" fill="white"/>
</svg>
