<svg width="39" height="37" viewBox="0 0 39 37" fill="none" xmlns="http://www.w3.org/2000/svg">
<path d="M0.200195 6.2002C0.200195 4.6089 0.832336 3.08277 1.95755 1.95755C3.08277 0.832336 4.6089 0.200195 6.2002 0.200195H27.8002C29.3915 0.200195 30.9176 0.832336 32.0428 1.95755C33.1681 3.08277 33.8002 4.6089 33.8002 6.2002V12.757C32.9194 12.2294 32.1164 11.5816 31.4146 10.8322L31.4002 10.8178V6.2002C31.4002 5.24542 31.0209 4.32974 30.3458 3.65461C29.6707 2.97948 28.755 2.6002 27.8002 2.6002H6.2002C5.24542 2.6002 4.32974 2.97948 3.65461 3.65461C2.97948 4.32974 2.6002 5.24542 2.6002 6.2002V27.8002C2.6002 28.755 2.97948 29.6707 3.65461 30.3458C4.32974 31.0209 5.24542 31.4002 6.2002 31.4002H18.973C19.4561 32.2584 20.0289 33.0629 20.6818 33.8002H6.2002C4.6089 33.8002 3.08277 33.1681 1.95755 32.0428C0.832336 30.9176 0.200195 29.3915 0.200195 27.8002V6.2002ZM37.6402 16.201C34.7002 16.201 32.0626 14.977 29.6818 12.493C29.5943 12.4008 29.489 12.3273 29.3722 12.2771C29.2555 12.2269 29.1297 12.201 29.0026 12.201C28.8755 12.201 28.7497 12.2269 28.6329 12.2771C28.5162 12.3273 28.4109 12.4008 28.3234 12.493C25.9354 14.9794 23.2954 16.201 20.3602 16.201C19.8322 16.201 19.4002 16.6474 19.4002 17.1994V23.2018L19.4098 23.7826C19.5946 29.9026 22.7386 34.0786 28.6978 36.1498C28.8946 36.217 29.1058 36.217 29.3026 36.1498C35.449 34.0138 38.6002 29.6386 38.6002 23.2018V17.2018L38.5858 17.0194C38.5497 16.7935 38.435 16.5876 38.2621 16.4379C38.0891 16.2882 37.8689 16.2043 37.6402 16.201ZM25.7362 19.6642L29.0002 22.9282L32.2522 19.6762C32.4228 19.5172 32.6485 19.4307 32.8816 19.4348C33.1148 19.4389 33.3372 19.5334 33.5021 19.6982C33.667 19.8631 33.7615 20.0856 33.7656 20.3188C33.7697 20.5519 33.6832 20.7776 33.5242 20.9482L30.2722 24.2002L33.5242 27.4522C33.6832 27.6228 33.7697 27.8485 33.7656 28.0816C33.7615 28.3148 33.667 28.5372 33.5021 28.7021C33.3372 28.867 33.1148 28.9615 32.8816 28.9656C32.6485 28.9697 32.4228 28.8832 32.2522 28.7242L29.0002 25.4722L25.7482 28.7242C25.5776 28.8832 25.3519 28.9697 25.1188 28.9656C24.8856 28.9615 24.6631 28.867 24.4983 28.7021C24.3334 28.5372 24.2389 28.3148 24.2348 28.0816C24.2307 27.8485 24.3172 27.6228 24.4762 27.4522L27.7282 24.2002L24.4642 20.9362C24.3052 20.7656 24.2187 20.5399 24.2228 20.3068C24.2269 20.0736 24.3214 19.8511 24.4862 19.6863C24.6511 19.5214 24.8736 19.4269 25.1068 19.4228C25.3399 19.4187 25.5656 19.5052 25.7362 19.6642Z" fill="white"/>
</svg>
